<?xml version="1.0" encoding="UTF-8"?>
<svg xmlns="http://www.w3.org/2000/svg" xmlns:xlink="http://www.w3.org/1999/xlink" width="612" height="792" viewBox="0 0 612 792">
<defs>
<clipPath id="clip-0">
<path clip-rule="nonzero" d="M 0 90 L 612 90 L 612 638 L 0 638 Z M 0 90 "/>
</clipPath>
</defs>
<rect x="-61.2" y="-79.2" width="734.4" height="950.4" fill="rgb(100%, 100%, 100%)" fill-opacity="1"/>
<g clip-path="url(#clip-0)">
<path fill="none" stroke-width="24" stroke-linecap="butt" stroke-linejoin="miter" stroke="rgb(32.159424%, 84.309387%, 83.529663%)" stroke-opacity="1" stroke-miterlimit="4" d="M 275.458725 -483.755488 C 258.647912 -536.31839 200.193893 -578.996638 145.000258 -578.996638 C 145.000258 -578.996638 -111.000225 -578.996638 -111.000225 -578.996638 C -166.19386 -578.996638 -224.647879 -536.31839 -241.458692 -483.755488 C -241.458692 -483.755488 -251.54173 -452.247073 -251.54173 -452.247073 C -268.352543 -399.68417 -326.806562 -356.997297 -382.000197 -356.997297 C -382.000197 -356.997297 -495.000949 -356.997297 -495.000949 -356.997297 C -550.185959 -356.997297 -595.003294 -312.188588 -595.003294 -257.003578 C -595.003294 -257.003578 -595.003294 335.99808 -595.003294 335.99808 C -595.003294 391.191715 -550.185959 436.000425 -495.000949 436.000425 C -495.000949 436.000425 529.000982 436.000425 529.000982 436.000425 C 584.185992 436.000425 629.003327 391.191715 629.003327 335.99808 C 629.003327 335.99808 629.003327 -257.003578 629.003327 -257.003578 C 629.003327 -312.188588 584.185992 -356.997297 529.000982 -356.997297 C 529.000982 -356.997297 416.00023 -356.997297 416.00023 -356.997297 C 360.806595 -356.997297 302.352576 -399.68417 285.541763 -452.247073 C 285.541763 -452.247073 275.458725 -483.755488 275.458725 -483.755488 Z M 275.458725 -483.755488 " transform="matrix(0.45288, 0, 0, 0.45288, 298.301032, 378.094907)"/>
</g>
<path fill="none" stroke-width="24" stroke-linecap="butt" stroke-linejoin="miter" stroke="rgb(32.159424%, 84.309387%, 83.529663%)" stroke-opacity="1" stroke-miterlimit="4" d="M 0.0000281532 -280.496386 C 154.807867 -280.496386 280.496514 -154.807739 280.496514 0.000100026 C 280.496514 154.807939 154.807867 280.496586 0.0000281532 280.496586 C -154.807811 280.496586 -280.496458 154.807939 -280.496458 0.000100026 C -280.496458 -154.807739 -154.807811 -280.496386 0.0000281532 -280.496386 Z M 0.0000281532 -280.496386 " transform="matrix(0.45288, 0, 0, 0.45288, 305.999987, 395.999955)"/>
</svg>
