<?xml version="1.0" encoding="UTF-8"?>
<svg xmlns="http://www.w3.org/2000/svg" xmlns:xlink="http://www.w3.org/1999/xlink" width="612" height="792" viewBox="0 0 612 792">
<rect x="-61.2" y="-79.2" width="734.4" height="950.4" fill="rgb(100%, 100%, 100%)" fill-opacity="1"/>
<path fill="none" stroke-width="24" stroke-linecap="butt" stroke-linejoin="miter" stroke="rgb(32.159424%, 84.309387%, 83.529663%)" stroke-opacity="1" stroke-miterlimit="4" d="M 664.002919 -587.996874 C 719.186075 -587.996874 763.995885 -543.187063 763.995885 -488.003907 C 763.995885 -488.003907 763.995885 488.003999 763.995885 488.003999 C 763.995885 543.187155 719.186075 587.996966 664.002919 587.996966 C 664.002919 587.996966 -664.002848 587.996966 -664.002848 587.996966 C -719.186004 587.996966 -763.995814 543.187155 -763.995814 488.003999 C -763.995814 488.003999 -763.995814 -488.003907 -763.995814 -488.003907 C -763.995814 -543.187063 -719.186004 -587.996874 -664.002848 -587.996874 C -664.002848 -587.996874 664.002919 -587.996874 664.002919 -587.996874 Z M 664.002919 -587.996874 " transform="matrix(0.359244, 0, 0, 0.359244, 305.999987, 395.999984)"/>
<path fill="none" stroke-width="24" stroke-linecap="butt" stroke-linejoin="miter" stroke="rgb(32.159424%, 84.309387%, 83.529663%)" stroke-opacity="1" stroke-miterlimit="4" d="M 450.942353 -49.881201 C 498.774768 -22.345967 498.774768 22.346129 450.942353 49.881362 C 450.942353 49.881362 220.760823 182.387492 220.760823 182.387492 C 172.947556 209.922726 95.32041 254.729712 47.564588 282.379835 C 47.564588 282.379835 -182.272272 415.479561 -182.272272 415.479561 C -230.028094 443.129685 -268.745926 420.764488 -268.669333 365.579132 C -268.669333 365.579132 -268.343812 99.992423 -268.343812 99.992423 C -268.267219 44.807067 -268.267219 -44.806905 -268.343812 -99.992262 C -268.343812 -99.992262 -268.669333 -365.57897 -268.669333 -365.57897 C -268.745926 -420.783475 -230.028094 -443.129523 -182.272272 -415.4794 C -182.272272 -415.4794 47.564588 -282.379673 47.564588 -282.379673 C 95.32041 -254.72955 172.947556 -209.922564 220.760823 -182.387331 C 220.760823 -182.387331 450.942353 -49.881201 450.942353 -49.881201 Z M 450.942353 -49.881201 " transform="matrix(0.204, 0, 0, 0.204, 278.58198, 395.999984)"/>
<path fill-rule="nonzero" fill="rgb(32.159424%, 84.309387%, 83.529663%)" fill-opacity="1" d="M 62.015625 549.40625 L 106.367188 549.40625 C 106.691406 549.40625 107.003906 549.46875 107.300781 549.59375 C 107.601562 549.71875 107.867188 549.894531 108.097656 550.125 C 108.328125 550.355469 108.503906 550.621094 108.628906 550.917969 C 108.75 551.21875 108.8125 551.53125 108.8125 551.855469 C 108.8125 552.179688 108.75 552.492188 108.628906 552.792969 C 108.503906 553.09375 108.328125 553.355469 108.097656 553.585938 C 107.867188 553.816406 107.601562 553.992188 107.300781 554.117188 C 107.003906 554.242188 106.691406 554.304688 106.367188 554.304688 L 62.015625 554.304688 C 61.691406 554.304688 61.378906 554.242188 61.078125 554.117188 C 60.777344 553.992188 60.515625 553.816406 60.285156 553.585938 C 60.054688 553.355469 59.878906 553.09375 59.753906 552.792969 C 59.628906 552.492188 59.566406 552.179688 59.566406 551.855469 C 59.566406 551.53125 59.628906 551.21875 59.753906 550.917969 C 59.878906 550.621094 60.054688 550.355469 60.285156 550.125 C 60.515625 549.894531 60.777344 549.71875 61.078125 549.59375 C 61.378906 549.46875 61.691406 549.40625 62.015625 549.40625 Z M 150.714844 549.40625 L 195.125 549.40625 C 195.449219 549.40625 195.761719 549.46875 196.058594 549.59375 C 196.359375 549.71875 196.625 549.894531 196.855469 550.125 C 197.085938 550.355469 197.261719 550.621094 197.386719 550.917969 C 197.507812 551.21875 197.570312 551.53125 197.570312 551.855469 C 197.570312 552.179688 197.507812 552.492188 197.386719 552.792969 C 197.261719 553.09375 197.085938 553.355469 196.855469 553.585938 C 196.625 553.816406 196.359375 553.992188 196.058594 554.117188 C 195.761719 554.242188 195.449219 554.304688 195.125 554.304688 L 150.714844 554.304688 C 150.390625 554.304688 150.078125 554.242188 149.78125 554.117188 C 149.480469 553.992188 149.214844 553.816406 148.984375 553.585938 C 148.757812 553.355469 148.578125 553.09375 148.453125 552.792969 C 148.332031 552.492188 148.269531 552.179688 148.269531 551.855469 C 148.269531 551.53125 148.332031 551.21875 148.453125 550.917969 C 148.578125 550.621094 148.757812 550.355469 148.984375 550.125 C 149.214844 549.894531 149.480469 549.71875 149.78125 549.59375 C 150.078125 549.46875 150.390625 549.40625 150.714844 549.40625 Z M 239.484375 549.40625 L 283.863281 549.40625 C 284.1875 549.40625 284.5 549.46875 284.800781 549.59375 C 285.101562 549.71875 285.367188 549.894531 285.59375 550.125 C 285.824219 550.355469 286 550.621094 286.125 550.917969 C 286.25 551.21875 286.3125 551.53125 286.3125 551.855469 C 286.3125 552.179688 286.25 552.492188 286.125 552.792969 C 286 553.09375 285.824219 553.355469 285.59375 553.585938 C 285.367188 553.816406 285.101562 553.992188 284.800781 554.117188 C 284.5 554.242188 284.1875 554.304688 283.863281 554.304688 L 239.484375 554.304688 C 239.160156 554.304688 238.847656 554.242188 238.546875 554.117188 C 238.246094 553.992188 237.980469 553.816406 237.75 553.585938 C 237.523438 553.355469 237.34375 553.09375 237.222656 552.792969 C 237.097656 552.492188 237.035156 552.179688 237.035156 551.855469 C 237.035156 551.53125 237.097656 551.21875 237.222656 550.917969 C 237.34375 550.621094 237.523438 550.355469 237.75 550.125 C 237.980469 549.894531 238.246094 549.71875 238.546875 549.59375 C 238.847656 549.46875 239.160156 549.40625 239.484375 549.40625 Z M 328.238281 549.40625 L 372.617188 549.40625 C 372.941406 549.40625 373.253906 549.46875 373.554688 549.59375 C 373.855469 549.71875 374.121094 549.894531 374.347656 550.125 C 374.578125 550.355469 374.753906 550.621094 374.878906 550.917969 C 375.003906 551.21875 375.066406 551.53125 375.066406 551.855469 C 375.066406 552.179688 375.003906 552.492188 374.878906 552.792969 C 374.753906 553.09375 374.578125 553.355469 374.347656 553.585938 C 374.121094 553.816406 373.855469 553.992188 373.554688 554.117188 C 373.253906 554.242188 372.941406 554.304688 372.617188 554.304688 L 328.238281 554.304688 C 327.914062 554.304688 327.601562 554.242188 327.300781 554.117188 C 327 553.992188 326.734375 553.816406 326.507812 553.585938 C 326.277344 553.355469 326.101562 553.09375 325.976562 552.792969 C 325.851562 552.492188 325.789062 552.179688 325.789062 551.855469 C 325.789062 551.53125 325.851562 551.21875 325.976562 550.917969 C 326.101562 550.621094 326.277344 550.355469 326.507812 550.125 C 326.734375 549.894531 327 549.71875 327.300781 549.59375 C 327.601562 549.46875 327.914062 549.40625 328.238281 549.40625 Z M 416.980469 549.40625 L 461.386719 549.40625 C 461.710938 549.40625 462.023438 549.46875 462.320312 549.59375 C 462.621094 549.71875 462.886719 549.894531 463.117188 550.125 C 463.34375 550.355469 463.523438 550.621094 463.648438 550.917969 C 463.769531 551.21875 463.832031 551.53125 463.832031 551.855469 C 463.832031 552.179688 463.769531 552.492188 463.648438 552.792969 C 463.523438 553.09375 463.34375 553.355469 463.117188 553.585938 C 462.886719 553.816406 462.621094 553.992188 462.320312 554.117188 C 462.023438 554.242188 461.710938 554.304688 461.386719 554.304688 L 416.980469 554.304688 C 416.65625 554.304688 416.34375 554.242188 416.042969 554.117188 C 415.742188 553.992188 415.476562 553.816406 415.25 553.585938 C 415.019531 553.355469 414.84375 553.09375 414.71875 552.792969 C 414.59375 552.492188 414.53125 552.179688 414.53125 551.855469 C 414.53125 551.53125 414.59375 551.21875 414.71875 550.917969 C 414.84375 550.621094 415.019531 550.355469 415.25 550.125 C 415.476562 549.894531 415.742188 549.71875 416.042969 549.59375 C 416.34375 549.46875 416.65625 549.40625 416.980469 549.40625 Z M 505.738281 549.40625 L 549.984375 549.40625 C 550.308594 549.40625 550.621094 549.46875 550.921875 549.59375 C 551.21875 549.71875 551.484375 549.894531 551.714844 550.125 C 551.945312 550.355469 552.121094 550.621094 552.246094 550.917969 C 552.371094 551.21875 552.433594 551.53125 552.433594 551.855469 C 552.433594 552.179688 552.371094 552.492188 552.246094 552.792969 C 552.121094 553.09375 551.945312 553.355469 551.714844 553.585938 C 551.484375 553.816406 551.21875 553.992188 550.921875 554.117188 C 550.621094 554.242188 550.308594 554.304688 549.984375 554.304688 L 505.738281 554.304688 C 505.414062 554.304688 505.101562 554.242188 504.800781 554.117188 C 504.503906 553.992188 504.238281 553.816406 504.007812 553.585938 C 503.777344 553.355469 503.601562 553.09375 503.476562 552.792969 C 503.351562 552.492188 503.289062 552.179688 503.289062 551.855469 C 503.289062 551.53125 503.351562 551.21875 503.476562 550.917969 C 503.601562 550.621094 503.777344 550.355469 504.007812 550.125 C 504.238281 549.894531 504.503906 549.71875 504.800781 549.59375 C 505.101562 549.46875 505.414062 549.40625 505.738281 549.40625 Z M 505.738281 549.40625 "/>
<path fill-rule="nonzero" fill="rgb(32.159424%, 84.309387%, 83.529663%)" fill-opacity="1" d="M 62.015625 237.636719 L 106.367188 237.636719 C 106.691406 237.636719 107.003906 237.695312 107.300781 237.820312 C 107.601562 237.945312 107.867188 238.121094 108.097656 238.351562 C 108.328125 238.582031 108.503906 238.847656 108.628906 239.144531 C 108.75 239.445312 108.8125 239.757812 108.8125 240.082031 C 108.8125 240.40625 108.75 240.71875 108.628906 241.019531 C 108.503906 241.320312 108.328125 241.585938 108.097656 241.8125 C 107.867188 242.042969 107.601562 242.21875 107.300781 242.34375 C 107.003906 242.46875 106.691406 242.53125 106.367188 242.53125 L 62.015625 242.53125 C 61.691406 242.53125 61.378906 242.46875 61.078125 242.34375 C 60.777344 242.21875 60.515625 242.042969 60.285156 241.8125 C 60.054688 241.585938 59.878906 241.320312 59.753906 241.019531 C 59.628906 240.71875 59.566406 240.40625 59.566406 240.082031 C 59.566406 239.757812 59.628906 239.445312 59.753906 239.144531 C 59.878906 238.847656 60.054688 238.582031 60.285156 238.351562 C 60.515625 238.121094 60.777344 237.945312 61.078125 237.820312 C 61.378906 237.695312 61.691406 237.636719 62.015625 237.636719 Z M 150.714844 237.636719 L 195.125 237.636719 C 195.449219 237.636719 195.761719 237.695312 196.058594 237.820312 C 196.359375 237.945312 196.625 238.121094 196.855469 238.351562 C 197.085938 238.582031 197.261719 238.847656 197.386719 239.144531 C 197.507812 239.445312 197.570312 239.757812 197.570312 240.082031 C 197.570312 240.40625 197.507812 240.71875 197.386719 241.019531 C 197.261719 241.320312 197.085938 241.585938 196.855469 241.8125 C 196.625 242.042969 196.359375 242.21875 196.058594 242.34375 C 195.761719 242.46875 195.449219 242.53125 195.125 242.53125 L 150.714844 242.53125 C 150.390625 242.53125 150.078125 242.46875 149.78125 242.34375 C 149.480469 242.21875 149.214844 242.042969 148.984375 241.8125 C 148.757812 241.585938 148.578125 241.320312 148.453125 241.019531 C 148.332031 240.71875 148.269531 240.40625 148.269531 240.082031 C 148.269531 239.757812 148.332031 239.445312 148.453125 239.144531 C 148.578125 238.847656 148.757812 238.582031 148.984375 238.351562 C 149.214844 238.121094 149.480469 237.945312 149.78125 237.820312 C 150.078125 237.695312 150.390625 237.636719 150.714844 237.636719 Z M 239.484375 237.636719 L 283.863281 237.636719 C 284.1875 237.636719 284.5 237.695312 284.800781 237.820312 C 285.101562 237.945312 285.367188 238.121094 285.59375 238.351562 C 285.824219 238.582031 286 238.847656 286.125 239.144531 C 286.25 239.445312 286.3125 239.757812 286.3125 240.082031 C 286.3125 240.40625 286.25 240.71875 286.125 241.019531 C 286 241.320312 285.824219 241.585938 285.59375 241.8125 C 285.367188 242.042969 285.101562 242.21875 284.800781 242.34375 C 284.5 242.46875 284.1875 242.53125 283.863281 242.53125 L 239.484375 242.53125 C 239.160156 242.53125 238.847656 242.46875 238.546875 242.34375 C 238.246094 242.21875 237.980469 242.042969 237.75 241.8125 C 237.523438 241.585938 237.34375 241.320312 237.222656 241.019531 C 237.097656 240.71875 237.035156 240.40625 237.035156 240.082031 C 237.035156 239.757812 237.097656 239.445312 237.222656 239.144531 C 237.34375 238.847656 237.523438 238.582031 237.75 238.351562 C 237.980469 238.121094 238.246094 237.945312 238.546875 237.820312 C 238.847656 237.695312 239.160156 237.636719 239.484375 237.636719 Z M 328.238281 237.636719 L 372.617188 237.636719 C 372.941406 237.636719 373.253906 237.695312 373.554688 237.820312 C 373.855469 237.945312 374.121094 238.121094 374.347656 238.351562 C 374.578125 238.582031 374.753906 238.847656 374.878906 239.144531 C 375.003906 239.445312 375.066406 239.757812 375.066406 240.082031 C 375.066406 240.40625 375.003906 240.71875 374.878906 241.019531 C 374.753906 241.320312 374.578125 241.585938 374.347656 241.8125 C 374.121094 242.042969 373.855469 242.21875 373.554688 242.34375 C 373.253906 242.46875 372.941406 242.53125 372.617188 242.53125 L 328.238281 242.53125 C 327.914062 242.53125 327.601562 242.46875 327.300781 242.34375 C 327 242.21875 326.734375 242.042969 326.507812 241.8125 C 326.277344 241.585938 326.101562 241.320312 325.976562 241.019531 C 325.851562 240.71875 325.789062 240.40625 325.789062 240.082031 C 325.789062 239.757812 325.851562 239.445312 325.976562 239.144531 C 326.101562 238.847656 326.277344 238.582031 326.507812 238.351562 C 326.734375 238.121094 327 237.945312 327.300781 237.820312 C 327.601562 237.695312 327.914062 237.636719 328.238281 237.636719 Z M 416.980469 237.636719 L 461.386719 237.636719 C 461.710938 237.636719 462.023438 237.695312 462.320312 237.820312 C 462.621094 237.945312 462.886719 238.121094 463.117188 238.351562 C 463.34375 238.582031 463.523438 238.847656 463.648438 239.144531 C 463.769531 239.445312 463.832031 239.757812 463.832031 240.082031 C 463.832031 240.40625 463.769531 240.71875 463.648438 241.019531 C 463.523438 241.320312 463.34375 241.585938 463.117188 241.8125 C 462.886719 242.042969 462.621094 242.21875 462.320312 242.34375 C 462.023438 242.46875 461.710938 242.53125 461.386719 242.53125 L 416.980469 242.53125 C 416.65625 242.53125 416.34375 242.46875 416.042969 242.34375 C 415.742188 242.21875 415.476562 242.042969 415.25 241.8125 C 415.019531 241.585938 414.84375 241.320312 414.71875 241.019531 C 414.59375 240.71875 414.53125 240.40625 414.53125 240.082031 C 414.53125 239.757812 414.59375 239.445312 414.71875 239.144531 C 414.84375 238.847656 415.019531 238.582031 415.25 238.351562 C 415.476562 238.121094 415.742188 237.945312 416.042969 237.820312 C 416.34375 237.695312 416.65625 237.636719 416.980469 237.636719 Z M 505.738281 237.636719 L 549.984375 237.636719 C 550.308594 237.636719 550.621094 237.695312 550.921875 237.820312 C 551.21875 237.945312 551.484375 238.121094 551.714844 238.351562 C 551.945312 238.582031 552.121094 238.847656 552.246094 239.144531 C 552.371094 239.445312 552.433594 239.757812 552.433594 240.082031 C 552.433594 240.40625 552.371094 240.71875 552.246094 241.019531 C 552.121094 241.320312 551.945312 241.585938 551.714844 241.8125 C 551.484375 242.042969 551.21875 242.21875 550.921875 242.34375 C 550.621094 242.46875 550.308594 242.53125 549.984375 242.53125 L 505.738281 242.53125 C 505.414062 242.53125 505.101562 242.46875 504.800781 242.34375 C 504.503906 242.21875 504.238281 242.042969 504.007812 241.8125 C 503.777344 241.585938 503.601562 241.320312 503.476562 241.019531 C 503.351562 240.71875 503.289062 240.40625 503.289062 240.082031 C 503.289062 239.757812 503.351562 239.445312 503.476562 239.144531 C 503.601562 238.847656 503.777344 238.582031 504.007812 238.351562 C 504.238281 238.121094 504.503906 237.945312 504.800781 237.820312 C 505.101562 237.695312 505.414062 237.636719 505.738281 237.636719 Z M 505.738281 237.636719 "/>
</svg>
