<?xml version="1.0" encoding="UTF-8"?>
<svg xmlns="http://www.w3.org/2000/svg" xmlns:xlink="http://www.w3.org/1999/xlink" width="612" height="792" viewBox="0 0 612 792">
<rect x="-61.2" y="-79.2" width="734.4" height="950.4" fill="rgb(100%, 100%, 100%)" fill-opacity="1"/>
<path fill="none" stroke-width="24" stroke-linecap="butt" stroke-linejoin="miter" stroke="rgb(32.159424%, 84.309387%, 83.529663%)" stroke-opacity="1" stroke-miterlimit="4" d="M 544.004243 -399.994268 C 599.186549 -399.994268 643.996868 -355.195857 643.996868 -300.001643 C 643.996868 -300.001643 643.996868 300.001743 643.996868 300.001743 C 643.996868 355.18405 599.186549 399.994369 544.004243 399.994369 C 544.004243 399.994369 -543.994593 399.994369 -543.994593 399.994369 C -599.188807 399.994369 -643.999127 355.18405 -643.999127 300.001743 C -643.999127 300.001743 -643.999127 -300.001643 -643.999127 -300.001643 C -643.999127 -355.195857 -599.188807 -399.994268 -543.994593 -399.994268 C -543.994593 -399.994268 544.004243 -399.994268 544.004243 -399.994268 Z M 544.004243 -399.994268 " transform="matrix(0.328032, 0, 0, 0.328032, 242.689823, 395.999984)"/>
<path fill="none" stroke-width="24" stroke-linecap="butt" stroke-linejoin="miter" stroke="rgb(32.159424%, 84.309387%, 83.529663%)" stroke-opacity="1" stroke-miterlimit="4" d="M 75.950047 -155.337382 C 131.132353 -155.337382 176.073662 -155.123036 176.228468 -154.861057 C 176.383273 -154.599078 198.889652 -115.564205 226.468897 -67.764944 C 226.468897 -67.764944 348.217689 143.271058 348.217689 143.271058 C 375.796934 191.082228 353.38582 229.890846 298.191606 229.890846 C 298.191606 229.890846 -298.191706 229.890846 -298.191706 229.890846 C -353.385921 229.890846 -375.773218 191.094136 -348.158249 143.318691 C -348.158249 143.318691 -226.147478 -67.800668 -226.147478 -67.800668 C -198.532509 -115.576113 -175.990406 -154.58717 -175.8356 -154.849149 C -175.680794 -155.111128 -130.751393 -155.325474 -75.569087 -155.325474 C -75.569087 -155.325474 75.950047 -155.337382 75.950047 -155.337382 Z M 75.950047 -155.337382 " transform="matrix(0, -0.328032, 0.328032, 0, 505.084539, 395.999984)"/>
</svg>
