<?xml version="1.0" encoding="UTF-8"?>
<svg xmlns="http://www.w3.org/2000/svg" xmlns:xlink="http://www.w3.org/1999/xlink" width="612" height="792" viewBox="0 0 612 792">
<rect x="-61.2" y="-79.2" width="734.4" height="950.4" fill="rgb(100%, 100%, 100%)" fill-opacity="1"/>
<path fill="none" stroke-width="6" stroke-linecap="butt" stroke-linejoin="miter" stroke="rgb(32.159424%, 84.309387%, 83.529663%)" stroke-opacity="1" stroke-miterlimit="4" d="M 0.0000434631 -934.76379 C 0.0000434631 -934.76379 -11.025533 -553.156327 271.072105 -271.072005 C 553.156427 11.025633 934.76389 0.0000562464 934.76389 0.0000562464 C 934.76389 0.0000562464 553.156427 -11.025521 271.072105 271.072117 C -11.025533 553.15644 0.0000434631 934.763903 0.0000434631 934.763903 C 0.0000434631 934.763903 11.02562 553.15644 -271.072018 271.072117 C -553.15634 -11.025521 -934.763803 0.0000562464 -934.763803 0.0000562464 C -934.763803 0.0000562464 -553.15634 11.025633 -271.072018 -271.072005 C 11.02562 -553.156327 0.0000434631 -934.76379 0.0000434631 -934.76379 Z M 0.0000434631 -934.76379 " transform="matrix(0.293352, 0, 0, 0.293352, 305.999987, 395.999984)"/>
<path fill="none" stroke-width="6" stroke-linecap="butt" stroke-linejoin="miter" stroke="rgb(32.159424%, 84.309387%, 83.529663%)" stroke-opacity="1" stroke-miterlimit="4" d="M 0.000510767 -934.750667 C 0.000510767 -934.750667 -11.006598 -553.140553 271.108261 -271.068269 C 553.111129 11.017766 934.804248 0.0176605 934.804248 0.0176605 C 934.804248 0.0176605 553.131263 -11.038569 271.058979 271.07629 C -11.013306 553.19115 -0.0269512 934.772277 -0.0269512 934.772277 C -0.0269512 934.772277 10.980158 553.162163 -271.085581 271.027008 C -553.137569 -10.996156 -934.718697 -0.00980144 -934.718697 -0.00980144 C -934.718697 -0.00980144 -553.157703 11.060179 -271.085419 -271.054681 C 10.986865 -553.16954 0.000510767 -934.750667 0.000510767 -934.750667 Z M 0.000510767 -934.750667 " transform="matrix(0.038581, -0.0301428, 0.0301428, 0.038581, 133.007997, 213.215982)"/>
<path fill="none" stroke-width="6" stroke-linecap="butt" stroke-linejoin="miter" stroke="rgb(32.159424%, 84.309387%, 83.529663%)" stroke-opacity="1" stroke-miterlimit="4" d="M -0.0111422 -934.759293 C -0.0111422 -934.759293 -11.03317 -553.188574 271.039361 -271.045626 C 553.216015 11.050964 934.806991 -0.0193059 934.806991 -0.0193059 C 934.806991 -0.0193059 553.132148 -10.994975 271.093323 271.031197 C -11.049626 553.103728 0.067003 934.798827 0.067003 934.798827 C 0.067003 934.798827 11.042672 553.123984 -271.087624 271.131518 C -553.160155 -11.011431 -934.797489 -0.0452846 -934.797489 -0.0452846 C -934.797489 -0.0452846 -553.180411 11.080867 -271.083821 -271.095788 C 11.059128 -553.168318 -0.0111422 -934.759293 -0.0111422 -934.759293 Z M -0.0111422 -934.759293 " transform="matrix(0.031309, 0.0139397, -0.0139397, 0.031309, 499.391979, 284.207976)"/>
<path fill="none" stroke-width="6" stroke-linecap="butt" stroke-linejoin="miter" stroke="rgb(32.159424%, 84.309387%, 83.529663%)" stroke-opacity="1" stroke-miterlimit="4" d="M 0.036046 -934.796103 C 0.036046 -934.796103 -11.089626 -553.155772 271.023772 -271.047958 C 553.13717 11.059856 934.68052 -0.0426538 934.68052 -0.0426538 C 934.68052 -0.0426538 553.075788 -11.014131 271.122168 271.063668 C -10.985645 553.177065 -0.0373304 934.756014 -0.0373304 934.756014 C -0.0373304 934.756014 11.088341 553.115684 -271.025056 271.00787 C -553.138454 -11.099944 -934.835999 0.0381641 -934.835999 0.0381641 C -934.835999 0.0381641 -553.231267 11.009641 -271.123453 -271.103756 C 10.984361 -553.217154 0.036046 -934.796103 0.036046 -934.796103 Z M 0.036046 -934.796103 " transform="matrix(-0.0240513, -0.00555269, 0.00555269, -0.0240513, 525.504002, 145.895999)"/>
</svg>
