<?xml version="1.0" encoding="UTF-8"?>
<svg xmlns="http://www.w3.org/2000/svg" xmlns:xlink="http://www.w3.org/1999/xlink" width="612" height="792" viewBox="0 0 612 792">
<rect x="-61.2" y="-79.2" width="734.4" height="950.4" fill="rgb(100%, 100%, 100%)" fill-opacity="1"/>
<path fill="none" stroke-width="6" stroke-linecap="butt" stroke-linejoin="miter" stroke="rgb(32.159424%, 84.309387%, 83.529663%)" stroke-opacity="1" stroke-miterlimit="4" d="M 544.004243 -399.994268 C 599.186549 -399.994268 643.996868 -355.195857 643.996868 -300.001643 C 643.996868 -300.001643 643.996868 300.001743 643.996868 300.001743 C 643.996868 355.18405 599.186549 399.994369 544.004243 399.994369 C 544.004243 399.994369 -543.994593 399.994369 -543.994593 399.994369 C -599.188807 399.994369 -643.999127 355.18405 -643.999127 300.001743 C -643.999127 300.001743 -643.999127 -300.001643 -643.999127 -300.001643 C -643.999127 -355.195857 -599.188807 -399.994268 -543.994593 -399.994268 C -543.994593 -399.994268 544.004243 -399.994268 544.004243 -399.994268 Z M 544.004243 -399.994268 " transform="matrix(0.328032, 0, 0, 0.328032, 242.689823, 395.999984)"/>
<path fill="none" stroke-width="6" stroke-linecap="butt" stroke-linejoin="miter" stroke="rgb(32.159424%, 84.309387%, 83.529663%)" stroke-opacity="1" stroke-miterlimit="4" d="M -50.002317 -373.185058 C -22.399256 -420.98432 22.399155 -420.98432 50.002217 -373.185058 C 50.002217 -373.185058 128.631644 -236.991697 128.631644 -236.991697 C 156.222798 -189.192435 201.033117 -111.587107 228.636178 -63.787845 C 228.636178 -63.787845 348.193873 143.294655 348.193873 143.294655 C 375.785026 191.093917 353.38582 229.890627 298.191606 229.890627 C 298.191606 229.890627 -298.191706 229.890627 -298.191706 229.890627 C -353.385921 229.890627 -375.785126 191.093917 -348.193973 143.294655 C -348.193973 143.294655 -50.002317 -373.185058 -50.002317 -373.185058 Z M -50.002317 -373.185058 " transform="matrix(0, -0.328032, 0.328032, 0, 505.084611, 395.999984)"/>
</svg>
