<?xml version="1.0" encoding="UTF-8"?>
<svg xmlns="http://www.w3.org/2000/svg" xmlns:xlink="http://www.w3.org/1999/xlink" width="612" height="792" viewBox="0 0 612 792">
<rect x="-61.2" y="-79.2" width="734.4" height="950.4" fill="rgb(100%, 100%, 100%)" fill-opacity="1"/>
<path fill="none" stroke-width="6" stroke-linecap="butt" stroke-linejoin="miter" stroke="rgb(100%, 93.728638%, 0%)" stroke-opacity="1" stroke-miterlimit="4" d="M 664.002919 -587.996874 C 719.186075 -587.996874 763.995885 -543.187063 763.995885 -488.003907 C 763.995885 -488.003907 763.995885 488.003999 763.995885 488.003999 C 763.995885 543.187155 719.186075 587.996966 664.002919 587.996966 C 664.002919 587.996966 -664.002848 587.996966 -664.002848 587.996966 C -719.186004 587.996966 -763.995814 543.187155 -763.995814 488.003999 C -763.995814 488.003999 -763.995814 -488.003907 -763.995814 -488.003907 C -763.995814 -543.187063 -719.186004 -587.996874 -664.002848 -587.996874 C -664.002848 -587.996874 664.002919 -587.996874 664.002919 -587.996874 Z M 664.002919 -587.996874 " transform="matrix(0.359244, 0, 0, 0.359244, 305.999987, 395.999984)"/>
<path fill="none" stroke-width="6" stroke-linecap="butt" stroke-linejoin="miter" stroke="rgb(100%, 93.728638%, 0%)" stroke-opacity="1" stroke-miterlimit="4" d="M 450.942353 -49.881201 C 498.774768 -22.345967 498.774768 22.346129 450.942353 49.881362 C 450.942353 49.881362 220.760823 182.387492 220.760823 182.387492 C 172.947556 209.922726 95.32041 254.729712 47.564588 282.379835 C 47.564588 282.379835 -182.272272 415.479561 -182.272272 415.479561 C -230.028094 443.129685 -268.745926 420.764488 -268.669333 365.579132 C -268.669333 365.579132 -268.343812 99.992423 -268.343812 99.992423 C -268.267219 44.807067 -268.267219 -44.806905 -268.343812 -99.992262 C -268.343812 -99.992262 -268.669333 -365.57897 -268.669333 -365.57897 C -268.745926 -420.783475 -230.028094 -443.129523 -182.272272 -415.4794 C -182.272272 -415.4794 47.564588 -282.379673 47.564588 -282.379673 C 95.32041 -254.72955 172.947556 -209.922564 220.760823 -182.387331 C 220.760823 -182.387331 450.942353 -49.881201 450.942353 -49.881201 Z M 450.942353 -49.881201 " transform="matrix(0.204, 0, 0, 0.204, 278.58198, 395.999984)"/>
<path fill-rule="nonzero" fill="rgb(100%, 93.728638%, 0%)" fill-opacity="1" d="M 62.015625 551.242188 L 106.367188 551.242188 C 106.535156 551.242188 106.679688 551.304688 106.796875 551.421875 C 106.917969 551.542969 106.976562 551.6875 106.976562 551.855469 C 106.976562 552.023438 106.917969 552.167969 106.796875 552.289062 C 106.679688 552.410156 106.535156 552.46875 106.367188 552.46875 L 62.015625 552.46875 C 61.847656 552.46875 61.703125 552.410156 61.582031 552.289062 C 61.464844 552.167969 61.402344 552.023438 61.402344 551.855469 C 61.402344 551.6875 61.464844 551.542969 61.582031 551.421875 C 61.703125 551.304688 61.847656 551.242188 62.015625 551.242188 Z M 150.714844 551.242188 L 195.125 551.242188 C 195.292969 551.242188 195.4375 551.304688 195.554688 551.421875 C 195.675781 551.542969 195.734375 551.6875 195.734375 551.855469 C 195.734375 552.023438 195.675781 552.167969 195.554688 552.289062 C 195.4375 552.410156 195.292969 552.46875 195.125 552.46875 L 150.714844 552.46875 C 150.546875 552.46875 150.402344 552.410156 150.285156 552.289062 C 150.164062 552.167969 150.105469 552.023438 150.105469 551.855469 C 150.105469 551.6875 150.164062 551.542969 150.285156 551.421875 C 150.402344 551.304688 150.546875 551.242188 150.714844 551.242188 Z M 239.484375 551.242188 L 283.863281 551.242188 C 284.035156 551.242188 284.175781 551.304688 284.296875 551.421875 C 284.417969 551.542969 284.476562 551.6875 284.476562 551.855469 C 284.476562 552.023438 284.417969 552.167969 284.296875 552.289062 C 284.175781 552.410156 284.035156 552.46875 283.863281 552.46875 L 239.484375 552.46875 C 239.3125 552.46875 239.167969 552.410156 239.050781 552.289062 C 238.929688 552.167969 238.871094 552.023438 238.871094 551.855469 C 238.871094 551.6875 238.929688 551.542969 239.050781 551.421875 C 239.167969 551.304688 239.3125 551.242188 239.484375 551.242188 Z M 328.238281 551.242188 L 372.617188 551.242188 C 372.789062 551.242188 372.929688 551.304688 373.050781 551.421875 C 373.171875 551.542969 373.230469 551.6875 373.230469 551.855469 C 373.230469 552.023438 373.171875 552.167969 373.050781 552.289062 C 372.929688 552.410156 372.789062 552.46875 372.617188 552.46875 L 328.238281 552.46875 C 328.070312 552.46875 327.925781 552.410156 327.804688 552.289062 C 327.683594 552.167969 327.625 552.023438 327.625 551.855469 C 327.625 551.6875 327.683594 551.542969 327.804688 551.421875 C 327.925781 551.304688 328.070312 551.242188 328.238281 551.242188 Z M 416.980469 551.242188 L 461.386719 551.242188 C 461.554688 551.242188 461.699219 551.304688 461.816406 551.421875 C 461.9375 551.542969 461.996094 551.6875 461.996094 551.855469 C 461.996094 552.023438 461.9375 552.167969 461.816406 552.289062 C 461.699219 552.410156 461.554688 552.46875 461.386719 552.46875 L 416.980469 552.46875 C 416.8125 552.46875 416.667969 552.410156 416.546875 552.289062 C 416.425781 552.167969 416.367188 552.023438 416.367188 551.855469 C 416.367188 551.6875 416.425781 551.542969 416.546875 551.421875 C 416.667969 551.304688 416.8125 551.242188 416.980469 551.242188 Z M 505.738281 551.242188 L 549.984375 551.242188 C 550.152344 551.242188 550.296875 551.304688 550.417969 551.421875 C 550.535156 551.542969 550.597656 551.6875 550.597656 551.855469 C 550.597656 552.023438 550.535156 552.167969 550.417969 552.289062 C 550.296875 552.410156 550.152344 552.46875 549.984375 552.46875 L 505.738281 552.46875 C 505.570312 552.46875 505.425781 552.410156 505.304688 552.289062 C 505.1875 552.167969 505.125 552.023438 505.125 551.855469 C 505.125 551.6875 505.1875 551.542969 505.304688 551.421875 C 505.425781 551.304688 505.570312 551.242188 505.738281 551.242188 Z M 505.738281 551.242188 "/>
<path fill-rule="nonzero" fill="rgb(100%, 93.728638%, 0%)" fill-opacity="1" d="M 62.015625 239.472656 L 106.367188 239.472656 C 106.535156 239.472656 106.679688 239.53125 106.796875 239.648438 C 106.917969 239.769531 106.976562 239.914062 106.976562 240.082031 C 106.976562 240.25 106.917969 240.394531 106.796875 240.515625 C 106.679688 240.636719 106.535156 240.695312 106.367188 240.695312 L 62.015625 240.695312 C 61.847656 240.695312 61.703125 240.636719 61.582031 240.515625 C 61.464844 240.394531 61.402344 240.25 61.402344 240.082031 C 61.402344 239.914062 61.464844 239.769531 61.582031 239.648438 C 61.703125 239.53125 61.847656 239.472656 62.015625 239.472656 Z M 150.714844 239.472656 L 195.125 239.472656 C 195.292969 239.472656 195.4375 239.53125 195.554688 239.648438 C 195.675781 239.769531 195.734375 239.914062 195.734375 240.082031 C 195.734375 240.25 195.675781 240.394531 195.554688 240.515625 C 195.4375 240.636719 195.292969 240.695312 195.125 240.695312 L 150.714844 240.695312 C 150.546875 240.695312 150.402344 240.636719 150.285156 240.515625 C 150.164062 240.394531 150.105469 240.25 150.105469 240.082031 C 150.105469 239.914062 150.164062 239.769531 150.285156 239.648438 C 150.402344 239.53125 150.546875 239.472656 150.714844 239.472656 Z M 239.484375 239.472656 L 283.863281 239.472656 C 284.035156 239.472656 284.175781 239.53125 284.296875 239.648438 C 284.417969 239.769531 284.476562 239.914062 284.476562 240.082031 C 284.476562 240.25 284.417969 240.394531 284.296875 240.515625 C 284.175781 240.636719 284.035156 240.695312 283.863281 240.695312 L 239.484375 240.695312 C 239.3125 240.695312 239.167969 240.636719 239.050781 240.515625 C 238.929688 240.394531 238.871094 240.25 238.871094 240.082031 C 238.871094 239.914062 238.929688 239.769531 239.050781 239.648438 C 239.167969 239.53125 239.3125 239.472656 239.484375 239.472656 Z M 328.238281 239.472656 L 372.617188 239.472656 C 372.789062 239.472656 372.929688 239.53125 373.050781 239.648438 C 373.171875 239.769531 373.230469 239.914062 373.230469 240.082031 C 373.230469 240.25 373.171875 240.394531 373.050781 240.515625 C 372.929688 240.636719 372.789062 240.695312 372.617188 240.695312 L 328.238281 240.695312 C 328.070312 240.695312 327.925781 240.636719 327.804688 240.515625 C 327.683594 240.394531 327.625 240.25 327.625 240.082031 C 327.625 239.914062 327.683594 239.769531 327.804688 239.648438 C 327.925781 239.53125 328.070312 239.472656 328.238281 239.472656 Z M 416.980469 239.472656 L 461.386719 239.472656 C 461.554688 239.472656 461.699219 239.53125 461.816406 239.648438 C 461.9375 239.769531 461.996094 239.914062 461.996094 240.082031 C 461.996094 240.25 461.9375 240.394531 461.816406 240.515625 C 461.699219 240.636719 461.554688 240.695312 461.386719 240.695312 L 416.980469 240.695312 C 416.8125 240.695312 416.667969 240.636719 416.546875 240.515625 C 416.425781 240.394531 416.367188 240.25 416.367188 240.082031 C 416.367188 239.914062 416.425781 239.769531 416.546875 239.648438 C 416.667969 239.53125 416.8125 239.472656 416.980469 239.472656 Z M 505.738281 239.472656 L 549.984375 239.472656 C 550.152344 239.472656 550.296875 239.53125 550.417969 239.648438 C 550.535156 239.769531 550.597656 239.914062 550.597656 240.082031 C 550.597656 240.25 550.535156 240.394531 550.417969 240.515625 C 550.296875 240.636719 550.152344 240.695312 549.984375 240.695312 L 505.738281 240.695312 C 505.570312 240.695312 505.425781 240.636719 505.304688 240.515625 C 505.1875 240.394531 505.125 240.25 505.125 240.082031 C 505.125 239.914062 505.1875 239.769531 505.304688 239.648438 C 505.425781 239.53125 505.570312 239.472656 505.738281 239.472656 Z M 505.738281 239.472656 "/>
</svg>
